<svg width="24" height="24" viewBox="0 0 24 24" fill="none" xmlns="http://www.w3.org/2000/svg">
<path d="M7.75 12.0011C7.75 12.9676 6.9665 13.7511 6 13.7511C5.0335 13.7511 4.25 12.9676 4.25 12.0011C4.25 11.0346 5.0335 10.2511 6 10.2511C6.9665 10.2511 7.75 11.0346 7.75 12.0011ZM13.75 12.0011C13.75 12.9676 12.9665 13.7511 12 13.7511C11.0335 13.7511 10.25 12.9676 10.25 12.0011C10.25 11.0346 11.0335 10.2511 12 10.2511C12.9665 10.2511 13.75 11.0346 13.75 12.0011ZM18 13.7511C18.9665 13.7511 19.75 12.9676 19.75 12.0011C19.75 11.0346 18.9665 10.2511 18 10.2511C17.0335 10.2511 16.25 11.0346 16.25 12.0011C16.25 12.9676 17.0335 13.7511 18 13.7511Z" fill="#171717"/>
</svg>
