<svg width="24" height="24" viewBox="0 0 24 24" fill="none" xmlns="http://www.w3.org/2000/svg">
<path d="M17.7545 13.9997C18.9966 13.9997 20.0034 15.0065 20.0034 16.2486V17.167C20.0034 17.7404 19.8242 18.2994 19.4908 18.7659C17.9449 20.9292 15.4206 22.0008 12.0004 22.0008C8.5794 22.0008 6.05643 20.9287 4.51427 18.7643C4.18231 18.2984 4.00391 17.7406 4.00391 17.1685V16.2486C4.00391 15.0065 5.01076 13.9997 6.25278 13.9997H17.7545ZM12.0004 2.00439C14.7618 2.00439 17.0004 4.24297 17.0004 7.00439C17.0004 9.76582 14.7618 12.0044 12.0004 12.0044C9.23894 12.0044 7.00036 9.76582 7.00036 7.00439C7.00036 4.24297 9.23894 2.00439 12.0004 2.00439Z" fill="white"/>
</svg>
