<svg width="17" height="16" viewBox="0 0 17 16" fill="none" xmlns="http://www.w3.org/2000/svg">
<path d="M8.50016 1.33325C12.1822 1.33325 15.1668 4.31859 15.1668 7.99992C15.1668 11.6813 12.1822 14.6666 8.50016 14.6666C4.81816 14.6666 1.8335 11.6813 1.8335 7.99992C1.8335 4.31859 4.81816 1.33325 8.50016 1.33325ZM8.50016 10.3333C8.13197 10.3333 7.8335 10.6317 7.8335 10.9999C7.8335 11.3681 8.13197 11.6666 8.50016 11.6666C8.86835 11.6666 9.16683 11.3681 9.16683 10.9999C9.16683 10.6317 8.86835 10.3333 8.50016 10.3333ZM8.50016 4.49992C7.48764 4.49992 6.66683 5.32073 6.66683 6.33325C6.66683 6.60939 6.89069 6.83325 7.16683 6.83325C7.41996 6.83325 7.62916 6.64515 7.66227 6.4011L7.66683 6.33325C7.66683 5.87301 8.03993 5.49992 8.50016 5.49992C8.9604 5.49992 9.3335 5.87301 9.3335 6.33325C9.3335 6.69246 9.2435 6.87009 8.90356 7.22138L8.81328 7.31303C8.22788 7.89843 8.00016 8.27795 8.00016 8.99992C8.00016 9.27606 8.22402 9.49992 8.50016 9.49992C8.77631 9.49992 9.00016 9.27606 9.00016 8.99992C9.00016 8.64071 9.09016 8.46308 9.4301 8.11179L9.52038 8.02014C10.1058 7.43474 10.3335 7.05522 10.3335 6.33325C10.3335 5.32073 9.51269 4.49992 8.50016 4.49992Z" fill="#737373"/>
</svg>
