<svg width="20" height="20" viewBox="0 0 20 20" fill="none" xmlns="http://www.w3.org/2000/svg">
<path d="M1.66675 5.55552C1.66675 4.51839 1.66675 3.99982 1.86859 3.60369C2.04613 3.25524 2.32943 2.97194 2.67788 2.7944C3.07401 2.59256 3.59258 2.59256 4.62971 2.59256H15.3705C16.4076 2.59256 16.9262 2.59256 17.3223 2.7944C17.6707 2.97194 17.954 3.25524 18.1316 3.60369C18.3334 3.99982 18.3334 4.51839 18.3334 5.55552V7.53083H1.66675V5.55552Z" fill="#3BAC63"/>
<path d="M1.66675 7.53082H18.3334V12.4691H1.66675V7.53082Z" fill="white"/>
<path d="M1.66675 12.4692H18.3334V14.4445C18.3334 15.4816 18.3334 16.0002 18.1316 16.3963C17.954 16.7448 17.6707 17.0281 17.3223 17.2056C16.9262 17.4074 16.4076 17.4074 15.3705 17.4074H4.62971C3.59258 17.4074 3.07401 17.4074 2.67788 17.2056C2.32943 17.0281 2.04613 16.7448 1.86859 16.3963C1.66675 16.0002 1.66675 15.4816 1.66675 14.4445V12.4692Z" fill="#FF4059"/>
</svg>
