<svg width="24" height="24" viewBox="0 0 24 24" fill="none" xmlns="http://www.w3.org/2000/svg">
<path d="M17.25 12.5C18.2165 12.5 19 13.2835 19 14.25V15C19 17.6223 16.4972 20.5 12 20.5C7.50279 20.5 5 17.6223 5 15V14.25C5 13.2835 5.7835 12.5 6.75 12.5H17.25ZM6.75 13C6.05964 13 5.5 13.5596 5.5 14.25V15C5.5 17.5108 7.95739 20 12 20C16.0426 20 18.5 17.5108 18.5 15V14.25C18.5 13.5596 17.9404 13 17.25 13H6.75ZM12 2.75C14.002 2.75 15.625 4.37297 15.625 6.375C15.625 8.37703 14.002 10 12 10C9.99797 10 8.375 8.37703 8.375 6.375C8.375 4.37297 9.99797 2.75 12 2.75ZM12 3.25C10.2741 3.25 8.875 4.64911 8.875 6.375C8.875 8.10089 10.2741 9.5 12 9.5C13.7259 9.5 15.125 8.10089 15.125 6.375C15.125 4.64911 13.7259 3.25 12 3.25Z" fill="#0B8B8A" stroke="#0B8B8A"/>
</svg>
