<svg width="24" height="24" viewBox="0 0 24 24" fill="none" xmlns="http://www.w3.org/2000/svg">
<path d="M7 7.00029H6C5.46957 7.00029 4.96086 7.211 4.58579 7.58608C4.21071 7.96115 4 8.46986 4 9.00029V18.0003C4 18.5307 4.21071 19.0394 4.58579 19.4145C4.96086 19.7896 5.46957 20.0003 6 20.0003H15C15.5304 20.0003 16.0391 19.7896 16.4142 19.4145C16.7893 19.0394 17 18.5307 17 18.0003V17.0003M16 5.00029L19 8.00029M20.385 6.58529C20.7788 6.19144 21.0001 5.65727 21.0001 5.10029C21.0001 4.54331 20.7788 4.00914 20.385 3.61529C19.9912 3.22144 19.457 3.00018 18.9 3.00018C18.343 3.00018 17.8088 3.22144 17.415 3.61529L9 12.0003V15.0003H12L20.385 6.58529Z" stroke="#171717" stroke-width="1.5" stroke-linecap="round" stroke-linejoin="round"/>
</svg>
