<svg width="24" height="24" viewBox="0 0 24 24" fill="none" xmlns="http://www.w3.org/2000/svg">
<path d="M5.84328 4.56837C9.24369 1.16796 14.7568 1.16796 18.1573 4.56837C21.5577 7.96878 21.5577 13.4819 18.1573 16.8823L16.9703 18.0562C16.0954 18.9149 14.9603 20.0188 13.5644 21.3684C12.6922 22.2118 11.3084 22.2117 10.4362 21.3682L6.94515 17.9723C6.50638 17.5415 6.13912 17.1782 5.84328 16.8823C2.44287 13.4819 2.44287 7.96878 5.84328 4.56837ZM17.0966 5.62903C14.282 2.81441 9.71856 2.81441 6.90394 5.62903C4.08931 8.44366 4.08931 13.0071 6.90394 15.8217L8.39101 17.2891C9.20992 18.0906 10.2394 19.091 11.4791 20.29C11.7698 20.5711 12.231 20.5712 12.5218 20.2901L15.9167 16.9886C16.3856 16.5283 16.779 16.1393 17.0966 15.8217C19.9112 13.0071 19.9112 8.44366 17.0966 5.62903ZM12.0003 7.99903C13.658 7.99903 15.0018 9.34287 15.0018 11.0006C15.0018 12.6583 13.658 14.0021 12.0003 14.0021C10.3426 14.0021 8.99871 12.6583 8.99871 11.0006C8.99871 9.34287 10.3426 7.99903 12.0003 7.99903ZM12.0003 9.49903C11.171 9.49903 10.4987 10.1713 10.4987 11.0006C10.4987 11.8299 11.171 12.5021 12.0003 12.5021C12.8295 12.5021 13.5018 11.8299 13.5018 11.0006C13.5018 10.1713 12.8295 9.49903 12.0003 9.49903Z" fill="#0B8B8A"/>
</svg>
